<?xml version="1.0" encoding="UTF-8" standalone="no"?>
<!-- Created with Inkscape (http://www.inkscape.org/) -->

<svg
   version="1.1"
   width="30mm"
   height="30mm"
   id="svg5987"
   sodipodi:docname="rpm.svg"
   inkscape:version="1.2.1 (9c6d41e410, 2022-07-14)"
   xml:space="preserve"
   xmlns:inkscape="http://www.inkscape.org/namespaces/inkscape"
   xmlns:sodipodi="http://sodipodi.sourceforge.net/DTD/sodipodi-0.dtd"
   xmlns:xlink="http://www.w3.org/1999/xlink"
   xmlns="http://www.w3.org/2000/svg"
   xmlns:svg="http://www.w3.org/2000/svg"><sodipodi:namedview
     id="namedview1202"
     pagecolor="#ffffff"
     bordercolor="#000000"
     borderopacity="0.25"
     inkscape:showpageshadow="2"
     inkscape:pageopacity="0.0"
     inkscape:pagecheckerboard="0"
     inkscape:deskcolor="#d1d1d1"
     showgrid="false"
     inkscape:zoom="5.4579804"
     inkscape:cx="41.498867"
     inkscape:cy="44.430354"
     inkscape:window-width="2560"
     inkscape:window-height="1010"
     inkscape:window-x="1680"
     inkscape:window-y="0"
     inkscape:window-maximized="1"
     inkscape:current-layer="svg5987"
     inkscape:document-units="mm" /><defs
     id="defs5989"><radialGradient
       cx="5"
       cy="41.5"
       r="5"
       fx="5"
       fy="41.5"
       id="radialGradient3314"
       xlink:href="#linearGradient3681"
       gradientUnits="userSpaceOnUse"
       gradientTransform="matrix(0.5938225,0,0,1.5366531,41.140892,-103.93618)" /><linearGradient
       id="linearGradient3703"><stop
         id="stop3705"
         style="stop-color:black;stop-opacity:0"
         offset="0" /><stop
         id="stop3711"
         style="stop-color:black;stop-opacity:1"
         offset="0.5" /><stop
         id="stop3707"
         style="stop-color:black;stop-opacity:0"
         offset="1" /></linearGradient><linearGradient
       x1="17.554192"
       y1="46.000275"
       x2="17.554192"
       y2="34.999718"
       id="linearGradient3312"
       xlink:href="#linearGradient3703"
       gradientUnits="userSpaceOnUse"
       gradientTransform="matrix(1.7570316,0,0,1.3969574,-17.394014,-16.411698)" /><linearGradient
       id="linearGradient3681"><stop
         id="stop3683"
         style="stop-color:black;stop-opacity:1"
         offset="0" /><stop
         id="stop3685"
         style="stop-color:black;stop-opacity:0"
         offset="1" /></linearGradient><radialGradient
       cx="5"
       cy="41.5"
       r="5"
       fx="5"
       fy="41.5"
       id="radialGradient3310"
       xlink:href="#linearGradient3681"
       gradientUnits="userSpaceOnUse"
       gradientTransform="matrix(0.5938225,0,0,1.5366531,-6.6594735,-103.93618)" /><linearGradient
       id="linearGradient3295"><stop
         id="stop3297"
         style="stop-color:#c9af8b;stop-opacity:1"
         offset="0" /><stop
         id="stop3299"
         style="stop-color:#ad8757;stop-opacity:1"
         offset="0.23942046" /><stop
         id="stop3301"
         style="stop-color:#c2a57f;stop-opacity:1"
         offset="0.27582464" /><stop
         id="stop3303"
         style="stop-color:#9d7d53;stop-opacity:1"
         offset="1" /></linearGradient><linearGradient
       x1="15.464298"
       y1="7.9756851"
       x2="15.464298"
       y2="45.04248"
       id="linearGradient3293"
       xlink:href="#linearGradient3295"
       gradientUnits="userSpaceOnUse"
       gradientTransform="matrix(1.7541522,0,0,1.7541522,2.438833,-3.2328142)" /><linearGradient
       id="linearGradient3199"><stop
         id="stop3201"
         style="stop-color:#dac197;stop-opacity:1"
         offset="0" /><stop
         id="stop3203"
         style="stop-color:#c1a581;stop-opacity:1"
         offset="0.23942046" /><stop
         id="stop3205"
         style="stop-color:#dbc298;stop-opacity:1"
         offset="0.27582464" /><stop
         id="stop3207"
         style="stop-color:#a68b60;stop-opacity:1"
         offset="1" /></linearGradient><linearGradient
       x1="24.822832"
       y1="15.377745"
       x2="24.996943"
       y2="37.27668"
       id="linearGradient3197"
       xlink:href="#linearGradient3199"
       gradientUnits="userSpaceOnUse"
       gradientTransform="matrix(2.249218,0,0,2.7316744,-8.2092073,-30.055127)" /><linearGradient
       id="linearGradient4559"><stop
         id="stop4561"
         style="stop-color:white;stop-opacity:0"
         offset="0" /><stop
         id="stop4563"
         style="stop-color:white;stop-opacity:0"
         offset="1" /></linearGradient><linearGradient
       x1="23.451576"
       y1="30.554907"
       x2="43.00663"
       y2="45.934479"
       id="linearGradient2659"
       xlink:href="#linearGradient4559"
       gradientUnits="userSpaceOnUse"
       gradientTransform="matrix(2.249218,0,0,2.0605801,-8.2092073,-12.535377)" /><linearGradient
       id="linearGradient3827"><stop
         id="stop3829"
         style="stop-color:white;stop-opacity:1"
         offset="0" /><stop
         id="stop4295"
         style="stop-color:white;stop-opacity:1"
         offset="0.3021296" /><stop
         id="stop4293"
         style="stop-color:white;stop-opacity:0.6901961"
         offset="0.34361121" /><stop
         id="stop3832"
         style="stop-color:white;stop-opacity:0"
         offset="1" /></linearGradient><linearGradient
       x1="26"
       y1="22"
       x2="26"
       y2="8"
       id="linearGradient3834"
       xlink:href="#linearGradient3827"
       gradientUnits="userSpaceOnUse"
       gradientTransform="matrix(1.7541522,0,0,1.7541522,2.438833,-3.2328142)" /><linearGradient
       id="linearGradient3275"><stop
         id="stop3277"
         style="stop-color:white;stop-opacity:0"
         offset="0" /><stop
         id="stop3283"
         style="stop-color:white;stop-opacity:1"
         offset="0.245" /><stop
         id="stop3285"
         style="stop-color:white;stop-opacity:1"
         offset="0.77350003" /><stop
         id="stop3279"
         style="stop-color:white;stop-opacity:0"
         offset="1" /></linearGradient><linearGradient
       x1="44.994774"
       y1="17.5"
       x2="3.0052247"
       y2="17.5"
       id="linearGradient3281"
       xlink:href="#linearGradient3275"
       gradientUnits="userSpaceOnUse"
       spreadMethod="reflect"
       gradientTransform="matrix(1.7541522,0,0,1.7541522,2.438833,-3.2328142)" /></defs><g
     transform="matrix(1.7412808,0,0,1.7123111,2.9215583,-0.96475961)"
     id="g3305"
     style="display:inline;opacity:0.4"><rect
       width="2.9601951"
       height="15.366531"
       x="-3.6903627"
       y="-47.848343"
       transform="scale(-1)"
       id="rect2484"
       style="fill:url(#radialGradient3310);fill-opacity:1;stroke:none" /><rect
       width="40.41172"
       height="15.366531"
       x="3.6903627"
       y="32.481812"
       id="rect2486"
       style="fill:url(#linearGradient3312);fill-opacity:1;stroke:none" /><rect
       width="2.9601951"
       height="15.366531"
       x="44.110001"
       y="-47.848343"
       transform="scale(1,-1)"
       id="rect3444"
       style="display:inline;fill:url(#radialGradient3314);fill-opacity:1;stroke:none" /></g><path
     d="m 18.245016,11.67748 h 51.743496 c 3.020624,0 4.379981,-0.502654 5.247637,1.754152 l 5.265499,14.033217 v 45.03595 c 0,2.724731 0.180554,2.308422 -2.840083,2.308422 H 11.415407 c -3.0206372,0 -2.8400842,0.416309 -2.8400842,-2.308422 V 27.464849 L 13.840822,13.431632 c 0.843452,-2.211218 1.383557,-1.754152 4.404194,-1.754152 z"
     id="path2488"
     style="display:block;overflow:visible;visibility:visible;fill:url(#linearGradient3197);fill-opacity:1;fill-rule:nonzero;stroke:url(#linearGradient3293);stroke-width:1.74398;stroke-linecap:round;stroke-linejoin:miter;stroke-miterlimit:4;stroke-dasharray:none;stroke-dashoffset:0;stroke-opacity:1;marker:none" /><path
     d="m 19.889479,13.454341 h 48.507347 c 2.831715,0 4.584266,0.976249 5.77032,3.659211 l 4.085315,11.261167 v 40.599076 c 0,2.562248 -1.436228,3.852267 -4.26795,3.852267 H 14.811338 c -2.831716,0 -3.986795,-1.418805 -3.986795,-3.981055 V 28.374719 l 3.953528,-11.502607 c 0.790705,-2.079358 2.279685,-3.417771 5.111408,-3.417771 z"
     id="path2490"
     style="display:block;overflow:visible;visibility:visible;opacity:0.505495;fill:none;stroke:url(#linearGradient2659);stroke-width:1.30178;stroke-linecap:butt;stroke-linejoin:miter;stroke-miterlimit:4;stroke-dasharray:none;stroke-dashoffset:0;stroke-opacity:1;marker:none" /><path
     d="m 41.030181,10.800403 c 2.338869,0 4.67774,0 7.016609,0 0,8.186045 0,16.372087 0,24.558131 -0.69066,0 -1.381321,0 -2.071982,0 -0.707142,0 -1.414285,0 -2.121427,0 -0.569274,0 -1.138545,0 -1.707817,0 -0.371794,0 -0.743588,0 -1.115383,0 0,-8.186044 0,-16.372086 0,-24.558131 z"
     id="rect3326"
     style="display:inline;overflow:visible;visibility:visible;opacity:0.4;fill:url(#linearGradient3834);fill-opacity:1;fill-rule:nonzero;stroke:none;stroke-width:1.75415;marker:none;enable-background:accumulate" /><path
     d="M 8.5875308,27.464849 H 80.48944"
     id="path3273"
     style="display:inline;opacity:0.4;fill:none;stroke:url(#linearGradient3281);stroke-width:1.75415px;stroke-linecap:square;stroke-linejoin:miter;stroke-opacity:1" /><g
     id="g1781"
     transform="translate(1.2459745,-4.2683554)"><path
       d="m 36.388523,41.712347 3.28173,-0.346768 c 0.194712,-0.04594 0.397084,-0.03719 0.596176,-0.04375 l 4.676462,0.02188 c 2.811344,0.19909 5.608467,0.667284 8.320265,1.443959 l -0.01091,0.01531 -1.185798,1.618985 c -0.117048,0.02188 -0.218783,-0.0525 -0.3227,-0.0897 -2.05655,-0.848873 -4.247647,-1.342226 -6.451875,-1.608045 -3.626303,-0.37193 -7.337938,-0.07329 -10.816562,1.042494 -2.559748,0.828089 -5.034172,2.105773 -6.944134,4.032147 -1.35316,1.383793 -2.392379,3.174522 -2.533488,5.135899 -0.131268,0.935292 0.09298,1.868396 0.290977,2.775246 l -8.58937,1.513969 c -0.0219,-1.515063 0.375211,-3.014812 1.004208,-4.386573 1.251433,-2.669136 3.423939,-4.813196 5.841471,-6.435463 1.635395,-1.098284 3.402057,-1.994195 5.250765,-2.704141 2.445974,-0.956076 5.010093,-1.610233 7.608133,-1.985444 z"
       id="path1753"
       style="stroke-width:1.0939" /><path
       d="m 52.064227,44.420865 1.185799,-1.618984 c 3.642713,1.06656 7.157447,2.750085 10.031144,5.259511 1.174859,1.050152 2.237041,2.242512 3.051999,3.595677 0.965926,1.59273 1.578512,3.417369 1.644146,5.286859 l -8.5653,-1.50303 c 0.35005,-1.117974 0.354421,-2.3344 0.113766,-3.475347 -0.446315,-1.971223 -1.709779,-3.664593 -3.234688,-4.948841 a 16.025757,16.025757 0 0 0 -4.256398,-2.553182 z"
       fill="#d72123"
       id="path1755"
       style="stroke-width:1.0939" /><path
       id="path1757"
       style="stroke-width:1.0939"
       d="m 42.336317,51.842235 c -0.336921,-0.04047 -0.633252,0.1786 -0.801712,0.452077 l -1.679831,-0.289459 -0.07806,0.465085 1.640807,0.265067 c 0.121426,0.242847 0.214403,0.532328 0.484599,0.65047 0.390523,0.219875 0.888144,0.02718 1.102547,-0.34475 l 26.841625,4.696391 0.08944,-0.437441 -26.846504,-4.776072 c -0.07876,-0.356615 -0.372231,-0.670427 -0.752913,-0.681368 z M 24.88584,58.512801 a 13.072205,13.072205 0 0 0 -3.496275,0.291085 l -0.0065,-0.234169 -4.73054,0.0049 0.0017,10.436784 h 4.730539 v -8.148758 l 0.02765,-0.35288 c 1.089525,-0.315044 2.363121,-0.315435 3.299506,0.406545 l 2.575859,-1.596903 C 26.524207,58.956239 25.739131,58.589409 24.88589,58.512834 Z m -8.233317,0.0618 v -0.0098 l -0.0032,0.0098 z m 16.430857,-0.0065 -4.158126,0.0065 0.0017,13.344382 4.738666,-0.648843 0.0032,-2.15468 c 2.165945,-0.09298 4.309468,-0.641246 6.234749,-1.671708 1.051243,-0.591803 2.086415,-1.383409 2.567725,-2.525448 0.411305,-0.951699 0.226934,-2.068839 -0.295956,-2.938496 -0.68916,-1.119066 -1.838325,-1.862885 -3.026313,-2.366083 -1.914342,-0.791988 -4.006893,-1.05657 -6.065632,-1.045629 z m 28.955658,0 -16.264995,0.0082 -0.01138,10.443289 h 0.286206 a 1222.2895,1222.2895 0 0 1 4.465473,-0.0017 l 0.0032,-9.410668 c 0.844499,0.0022 1.691778,-0.0011 2.538459,0 0.476947,0.0022 0.964135,0.04007 1.408261,0.226037 l 0.02439,1.647315 0.0032,7.547073 c 1.568662,0.0011 3.159604,5.44e-4 4.740297,0.0017 l 0.0032,-9.407416 2.920606,0.01138 c 0.35443,0.04266 0.76228,0.03301 1.048886,0.281328 l -0.0032,9.11633 c 1.578512,-0.0011 3.156907,0 4.735418,0 l -0.0032,-9.187882 C 67.816864,59.326726 67.225076,59.152154 66.78095,59.005571 65.237441,58.584418 63.625193,58.574707 62.039029,58.56813 Z m -16.264995,0.0082 v -0.0032 l -0.0017,0.0032 z m -12.101981,1.146452 c 1.214232,0.12033 2.309327,0.806959 3.138515,1.673334 0.715412,0.751514 1.219561,1.800472 1.04563,2.857187 -0.190341,1.058902 -0.92656,1.918568 -1.754648,2.559598 -0.719784,0.528356 -1.532502,0.985468 -2.429497,1.105798 z" /></g></svg>
